<svg width="4624" height="1000" viewBox="0 0 4624 1000" fill="none" xmlns="http://www.w3.org/2000/svg">
<g clip-path="url(#clip0_742_2)">
<path d="M1647.45 237.914V335.57H1354.48V459.594H1598.62C1660.8 462.523 1693.35 494.75 1696.28 556.273V676.879C1693.35 739.379 1660.47 772.419 1597.65 776H1256.83V678.344H1598.62V557.25H1354.48C1291.98 552.693 1259.43 519.978 1256.83 459.105V335.082C1259.43 273.233 1291.98 240.844 1354.48 237.914H1647.45ZM2215.73 531.859V335.57H1971.59V531.859H2215.73ZM1971.59 629.516V776H1873.94V237.914H2214.76C2277.58 240.844 2310.46 273.721 2313.39 336.547V530.883C2310.46 592.732 2277.91 625.609 2215.73 629.516L2314.37 776H2206.95L2108.31 629.516H1971.59ZM2491.05 239.867H2588.7V776H2491.05V239.867ZM2766.36 238.891H2864.02V483.031H3108.16V238.891H3205.81V484.008C3203.53 545.531 3170.82 577.758 3107.67 580.688H3034.91V776H2937.75V580.688H2864.99C2801.19 577.758 2768.31 545.368 2766.36 483.52V238.891ZM3725.27 678.344V335.57H3481.12V678.344H3725.27ZM3383.47 335.082C3386.07 272.582 3418.62 240.193 3481.12 237.914H3724.78C3786.63 240.193 3819.34 272.582 3822.92 335.082V678.344C3821.29 741.495 3788.74 774.047 3725.27 776H3481.12C3417.32 774.047 3384.77 741.495 3383.47 678.344V335.082ZM4000.58 336.059C4002.86 272.908 4035.41 240.193 4098.23 237.914H4343.35C4406.18 240.193 4438.4 272.908 4440.03 336.059V384.398H4342.38V335.57H4098.23V678.344H4342.38V557.25H4221.28V459.594H4440.03V678.344C4436.78 739.867 4404.55 772.419 4343.35 776H4098.23C4036.06 772.745 4003.51 740.355 4000.58 678.832V336.059Z" fill="#4B4B4B"/>
<path d="M1062.56 588.44C998.251 828.44 751.56 970.867 511.56 906.559C271.56 842.251 129.133 595.56 193.441 355.56C257.749 115.56 504.439 -26.8666 744.44 37.4412C984.44 101.749 1126.87 348.439 1062.56 588.44Z" fill="#4B4B4B"/>
<path fill-rule="evenodd" clip-rule="evenodd" d="M704.5 504.856C729.581 472.589 747.088 432.826 757.022 385.566L831.1 544.377C783.837 633.054 709.442 720.17 607.917 805.725L486.743 755.197C541.595 717.542 599.524 656.674 660.532 572.593L544.698 548.698C515.674 591.098 475.632 631.816 424.573 670.851L305.554 623.254C354.314 590.539 394.355 553.758 425.677 512.909C363.309 490.576 322.978 459.799 304.684 420.58C286.821 381.16 285.721 343.366 301.385 307.198C317.48 270.829 342.982 244.503 377.891 228.219C413.232 211.734 453.051 210.477 497.35 224.447C541.448 237.986 576.794 268.202 603.39 315.093C629.986 361.984 625.509 417.073 589.959 480.358L704.5 504.856ZM430.392 409.957C439.238 428.92 453.126 442.383 472.058 450.344C492.95 417.51 505.18 386.354 508.747 356.878C512.746 327.201 506.443 308.627 489.838 301.154C473.665 293.48 457.502 304.955 441.351 335.578C424.999 365.77 421.346 390.563 430.392 409.957Z" fill="white"/>
<path d="M663.376 307.503L786.947 249.863L965.083 631.755L841.512 689.395L663.376 307.503ZM598.6 168.634L722.17 110.993L770.753 215.146L647.182 272.786L598.6 168.634Z" fill="white"/>
</g>
<defs>
<clipPath id="clip0_742_2">
<rect width="4624" height="1000" fill="white"/>
</clipPath>
</defs>
</svg>
